<?xml version="1.0" encoding="utf-8"?>
<!-- Generator: Adobe Illustrator 24.0.0, SVG Export Plug-In . SVG Version: 6.00 Build 0)  -->
<svg version="1.1" xmlns="http://www.w3.org/2000/svg" xmlns:xlink="http://www.w3.org/1999/xlink" x="0px" y="0px"
	 viewBox="0 0 244 229" style="enable-background:new 0 0 244 229;" xml:space="preserve">
<style type="text/css">
	.st0{display:none;}
	
		.st1{display:inline;fill:#ADADDD;stroke:#3333AA;stroke-width:4;stroke-linecap:round;stroke-linejoin:round;stroke-miterlimit:10;}
	.st2{fill:none;stroke:#3333AA;stroke-width:4;stroke-linecap:round;stroke-linejoin:round;stroke-miterlimit:10;}
	.st3{display:inline;}
	.st4{fill:#ADADDD;stroke:#3333AA;stroke-width:4;stroke-linecap:round;stroke-linejoin:round;stroke-miterlimit:10;}
	.st5{display:inline;fill:#FFFFFF;stroke:#000000;stroke-width:4;stroke-linejoin:round;stroke-miterlimit:10;}
	.st6{display:inline;fill:#ADADDD;stroke:#3333AA;stroke-width:4;stroke-linejoin:round;stroke-miterlimit:10;}
	.st7{fill:#FFFFFF;}
	.st8{fill:#3333AA;}
	.st9{fill:none;stroke:#3333AA;stroke-width:5;stroke-linejoin:round;}
</style>
<g id="Polygon" class="st0">
	<polygon class="st1" points="163.9,129.79 84.69,125.15 36.18,155.3 98.53,187.78 187.56,165.85 	"/>
</g>
<g id="Object" class="st0">
	<polygon class="st1" points="50,86 122,110 122,200 50,162.5 	"/>
	<polygon class="st1" points="122,200 194,162.5 194,86 122,110 	"/>
	<polygon class="st1" points="83.08,59.88 50,86 122,110 	"/>
	<polygon class="st1" points="155,44 83,60 122,110 194,86 	"/>
</g>
<g id="Line">
	<line class="st2" x1="50" y1="162" x2="122" y2="135"/>
	<line class="st2" x1="66" y1="171" x2="138" y2="141"/>
	<line class="st2" x1="83" y1="180" x2="156" y2="148"/>
	<line class="st2" x1="102" y1="190" x2="174" y2="155"/>
	<line class="st2" x1="122" y1="200" x2="194" y2="162"/>
</g>
<g id="Forest" class="st0">
	<g class="st3">
		<g>
			<polyline class="st4" points="154.03,41.44 131.61,75.03 147.23,73.61 122.94,104.6 139.95,105.62 119.91,129.23 149.93,136.86 
				149.93,152.28 154.03,153.91 			"/>
		</g>
		<g>
			<polyline class="st4" points="154.03,41.44 178.61,87.04 161.03,76.98 189.43,125.97 168.94,114.68 193.4,156.79 158.21,139.9 
				158.21,155.57 154.03,153.91 			"/>
		</g>
	</g>
	<g class="st3">
		<g>
			<polyline class="st4" points="132.34,45.87 109.87,80.81 125.51,79.51 101.21,111.61 118.21,112.94 98.19,137.3 128.22,145.83 
				128.22,161.99 132.34,163.79 			"/>
		</g>
		<g>
			<polyline class="st4" points="132.34,45.87 157.07,94.01 139.36,83.22 168,135.11 147.33,122.9 172.01,167.61 136.53,149.18 
				136.53,165.61 132.34,163.79 			"/>
		</g>
	</g>
	<g class="st3">
		<g>
			<polyline class="st4" points="110.9,50.24 88.49,86.5 104.08,85.34 79.87,118.5 96.8,120.15 76.87,145.23 106.79,154.69 
				106.79,171.58 110.9,173.54 			"/>
		</g>
		<g>
			<polyline class="st4" points="110.9,50.24 135.69,100.93 117.93,89.39 146.68,144.21 125.91,131.04 150.72,178.39 115.1,158.35 
				115.1,175.54 110.9,173.54 			"/>
		</g>
	</g>
	<g class="st3">
		<g>
			<polyline class="st4" points="89.47,54.62 67.19,92.16 82.67,91.15 58.64,125.34 75.44,127.35 55.68,153.11 85.37,163.54 
				85.37,181.17 89.47,183.3 			"/>
		</g>
		<g>
			<polyline class="st4" points="89.47,54.62 114.21,107.88 96.47,95.57 125.21,153.36 104.43,139.21 129.27,189.24 93.64,167.53 
				93.64,185.48 89.47,183.3 			"/>
		</g>
	</g>
</g>
<g id="Facade" class="st0">
	<polygon id="Cube_Top_1_" class="st5" points="49.89,60.47 122,80 194.11,60.47 122,46.04 	"/>
	<polygon id="Cube_Right_1_" class="st6" points="122,200 194.11,162.44 194.11,60.47 122,80 	"/>
	<polygon id="Cube_Left_1_" class="st6" points="49.89,162.44 122,200 122,80 49.89,60.47 	"/>
</g>
<g id="Decal" class="st0">
	<g id="Decal_Fill">
		<g id="Checkerboard_2_" class="st3">
			<path class="st7" d="M20.65,84.87c-3.54-1.26-5.31-1.89-8.84-3.15c0-5.45,0-8.18,0-13.63c3.54,1.13,5.31,1.69,8.84,2.82
				C20.65,76.5,20.65,79.29,20.65,84.87z"/>
			<path class="st7" d="M29.49,102.29c-3.54-1.39-5.31-2.09-8.84-3.48c0-5.58,0-8.37,0-13.95c3.54,1.26,5.31,1.89,8.84,3.15
				C29.49,93.73,29.49,96.58,29.49,102.29z"/>
			<path class="st8" d="M29.49,88.02c-3.54-1.26-5.31-1.89-8.84-3.15c0-5.58,0-8.37,0-13.95c3.54,1.13,5.31,1.69,8.84,2.82
				C29.49,79.45,29.49,82.31,29.49,88.02z"/>
			<path class="st8" d="M20.65,98.82c-3.54-1.39-5.31-2.09-8.84-3.48c0-5.45,0-8.18,0-13.63c3.54,1.26,5.31,1.89,8.84,3.15
				C20.65,90.45,20.65,93.24,20.65,98.82z"/>
			<path class="st7" d="M38.34,91.17c-3.54-1.26-5.31-1.89-8.84-3.15c0-5.71,0-8.57,0-14.28c3.54,1.13,5.31,1.69,8.84,2.82
				C38.34,82.4,38.34,85.33,38.34,91.17z"/>
			<path class="st7" d="M47.18,109.25c-3.54-1.39-5.31-2.09-8.84-3.48c0-5.84,0-8.76,0-14.6c3.54,1.26,5.31,1.89,8.84,3.15
				C47.18,100.29,47.18,103.27,47.18,109.25z"/>
			<path class="st8" d="M47.18,94.32c-3.54-1.26-5.31-1.89-8.84-3.15c0-5.84,0-8.76,0-14.6c3.54,1.13,5.31,1.69,8.84,2.82
				C47.18,85.36,47.18,88.34,47.18,94.32z"/>
			<path class="st8" d="M38.34,105.77c-3.54-1.39-5.31-2.09-8.84-3.48c0-5.71,0-8.57,0-14.28c3.54,1.26,5.31,1.89,8.84,3.15
				C38.34,97.01,38.34,99.93,38.34,105.77z"/>
			<path class="st7" d="M20.65,112.77c-3.54-1.52-5.31-2.28-8.84-3.8c0-5.45,0-8.18,0-13.63c3.54,1.39,5.31,2.09,8.84,3.48
				C20.65,104.4,20.65,107.19,20.65,112.77z"/>
			<path class="st7" d="M29.49,130.85c-3.54-1.65-5.31-2.48-8.84-4.13c0-5.58,0-8.37,0-13.95c3.54,1.52,5.31,2.28,8.84,3.8
				C29.49,122.28,29.49,125.14,29.49,130.85z"/>
			<path class="st8" d="M29.49,116.57c-3.54-1.52-5.31-2.28-8.84-3.8c0-5.58,0-8.37,0-13.95c3.54,1.39,5.31,2.09,8.84,3.48
				C29.49,108.01,29.49,110.86,29.49,116.57z"/>
			<path class="st8" d="M20.65,126.72c-3.54-1.65-5.31-2.48-8.84-4.13c0-5.45,0-8.18,0-13.63c3.54,1.52,5.31,2.28,8.84,3.8
				C20.65,118.35,20.65,121.14,20.65,126.72z"/>
			<path class="st7" d="M38.34,120.37c-3.54-1.52-5.31-2.28-8.84-3.8c0-5.71,0-8.57,0-14.28c3.54,1.39,5.31,2.09,8.84,3.48
				C38.34,111.61,38.34,114.53,38.34,120.37z"/>
			<path class="st7" d="M47.18,139.11c-3.54-1.65-5.31-2.48-8.84-4.13c0-5.84,0-8.76,0-14.6c3.54,1.52,5.31,2.28,8.84,3.8
				C47.18,130.15,47.18,133.13,47.18,139.11z"/>
			<path class="st8" d="M47.18,124.18c-3.54-1.52-5.31-2.28-8.84-3.8c0-5.84,0-8.76,0-14.6c3.54,1.39,5.31,2.09,8.84,3.48
				C47.18,115.22,47.18,118.2,47.18,124.18z"/>
			<path class="st8" d="M38.34,134.98c-3.54-1.65-5.31-2.48-8.84-4.13c0-5.71,0-8.57,0-14.28c3.54,1.52,5.31,2.28,8.84,3.8
				C38.34,126.22,38.34,129.14,38.34,134.98z"/>
			<path class="st7" d="M56.02,97.47c-3.54-1.26-5.31-1.89-8.84-3.15c0-5.97,0-8.96,0-14.93c3.54,1.13,5.31,1.69,8.84,2.82
				C56.02,88.31,56.02,91.36,56.02,97.47z"/>
			<path class="st7" d="M64.87,116.2c-3.54-1.39-5.31-2.09-8.84-3.48c0-6.1,0-9.15,0-15.26c3.54,1.26,5.31,1.89,8.84,3.15
				C64.87,106.85,64.87,109.96,64.87,116.2z"/>
			<path class="st8" d="M64.87,100.62c-3.54-1.26-5.31-1.89-8.84-3.15c0-6.1,0-9.15,0-15.25c3.54,1.13,5.31,1.69,8.84,2.82
				C64.87,91.27,64.87,94.38,64.87,100.62z"/>
			<path class="st8" d="M56.02,112.72c-3.54-1.39-5.31-2.09-8.84-3.48c0-5.97,0-8.96,0-14.93c3.54,1.26,5.31,1.89,8.84,3.15
				C56.02,103.57,56.02,106.62,56.02,112.72z"/>
			<path class="st7" d="M73.71,103.77c-3.54-1.26-5.31-1.89-8.84-3.15c0-6.23,0-9.35,0-15.58c3.54,1.13,5.31,1.69,8.84,2.82
				C73.71,94.22,73.71,97.4,73.71,103.77z"/>
			<path class="st7" d="M82.55,123.15c-3.54-1.39-5.31-2.09-8.84-3.48c0-6.36,0-9.54,0-15.91c3.54,1.26,5.31,1.89,8.84,3.15
				C82.55,113.41,82.55,116.66,82.55,123.15z"/>
			<path class="st8" d="M82.55,106.92c-3.54-1.26-5.31-1.89-8.84-3.15c0-6.36,0-9.54,0-15.91c3.54,1.13,5.31,1.69,8.84,2.82
				C82.55,97.18,82.55,100.42,82.55,106.92z"/>
			<path class="st8" d="M73.71,119.67c-3.54-1.39-5.31-2.09-8.84-3.48c0-6.23,0-9.35,0-15.58c3.54,1.26,5.31,1.89,8.84,3.15
				C73.71,110.13,73.71,113.31,73.71,119.67z"/>
			<path class="st7" d="M56.02,127.98c-3.54-1.52-5.31-2.28-8.84-3.8c0-5.97,0-8.96,0-14.93c3.54,1.39,5.31,2.09,8.84,3.48
				C56.02,118.82,56.02,121.87,56.02,127.98z"/>
			<path class="st7" d="M64.87,147.36c-3.54-1.65-5.31-2.48-8.84-4.13c0-6.1,0-9.15,0-15.26c3.54,1.52,5.31,2.28,8.84,3.8
				C64.87,138.01,64.87,141.13,64.87,147.36z"/>
			<path class="st8" d="M64.87,131.78c-3.54-1.52-5.31-2.28-8.84-3.8c0-6.1,0-9.15,0-15.26c3.54,1.39,5.31,2.09,8.84,3.48
				C64.87,122.43,64.87,125.55,64.87,131.78z"/>
			<path class="st8" d="M56.02,143.23c-3.54-1.65-5.31-2.48-8.84-4.13c0-5.97,0-8.96,0-14.93c3.54,1.52,5.31,2.28,8.84,3.8
				C56.02,134.08,56.02,137.13,56.02,143.23z"/>
			<path class="st7" d="M73.71,135.58c-3.54-1.52-5.31-2.28-8.84-3.8c0-6.23,0-9.35,0-15.58c3.54,1.39,5.31,2.09,8.84,3.48
				C73.71,126.04,73.71,129.22,73.71,135.58z"/>
			<path class="st7" d="M82.55,155.61c-3.54-1.65-5.31-2.48-8.84-4.13c0-6.36,0-9.54,0-15.91c3.54,1.52,5.31,2.28,8.84,3.8
				C82.55,145.87,82.55,149.12,82.55,155.61z"/>
			<path class="st8" d="M82.55,139.38c-3.54-1.52-5.31-2.28-8.84-3.8c0-6.36,0-9.54,0-15.91c3.54,1.39,5.31,2.09,8.84,3.48
				C82.55,129.64,82.55,132.89,82.55,139.38z"/>
			<path class="st8" d="M73.71,151.49c-3.54-1.65-5.31-2.48-8.84-4.13c0-6.23,0-9.35,0-15.58c3.54,1.52,5.31,2.28,8.84,3.8
				C73.71,141.94,73.71,145.12,73.71,151.49z"/>
			<path class="st7" d="M20.65,140.68c-3.54-1.78-5.31-2.67-8.84-4.45c0-5.45,0-8.18,0-13.63c3.54,1.65,5.31,2.48,8.84,4.13
				C20.65,132.3,20.65,135.09,20.65,140.68z"/>
			<path class="st7" d="M29.49,159.41c-3.54-1.91-5.31-2.87-8.84-4.78c0-5.58,0-8.37,0-13.95c3.54,1.78,5.31,2.67,8.84,4.45
				C29.49,150.84,29.49,153.7,29.49,159.41z"/>
			<path class="st8" d="M29.49,145.13c-3.54-1.78-5.31-2.67-8.84-4.45c0-5.58,0-8.37,0-13.95c3.54,1.65,5.31,2.48,8.84,4.13
				C29.49,136.56,29.49,139.42,29.49,145.13z"/>
			<path class="st8" d="M20.65,154.63c-3.54-1.91-5.31-2.87-8.84-4.78c0-5.45,0-8.18,0-13.63c3.54,1.78,5.31,2.67,8.84,4.45
				C20.65,146.26,20.65,149.05,20.65,154.63z"/>
			<path class="st7" d="M38.34,149.58c-3.54-1.78-5.31-2.67-8.84-4.45c0-5.71,0-8.57,0-14.28c3.54,1.65,5.31,2.48,8.84,4.13
				C38.34,140.82,38.34,143.74,38.34,149.58z"/>
			<path class="st7" d="M47.18,168.97c-3.54-1.91-5.31-2.87-8.84-4.78c0-5.84,0-8.76,0-14.6c3.54,1.78,5.31,2.67,8.84,4.45
				C47.18,160.01,47.18,162.99,47.18,168.97z"/>
			<path class="st8" d="M47.18,154.04c-3.54-1.78-5.31-2.67-8.84-4.45c0-5.84,0-8.76,0-14.6c3.54,1.65,5.31,2.48,8.84,4.13
				C47.18,145.08,47.18,148.06,47.18,154.04z"/>
			<path class="st8" d="M38.34,164.19c-3.54-1.91-5.31-2.87-8.84-4.78c0-5.71,0-8.57,0-14.28c3.54,1.78,5.31,2.67,8.84,4.45
				C38.34,155.42,38.34,158.34,38.34,164.19z"/>
			<path class="st7" d="M20.65,168.58c-3.54-2.04-5.31-3.06-8.84-5.1c0-5.45,0-8.18,0-13.63c3.54,1.91,5.31,2.87,8.84,4.78
				C20.65,160.21,20.65,163,20.65,168.58z"/>
			<path class="st7" d="M29.49,187.96c-3.54-2.17-5.31-3.26-8.84-5.43c0-5.58,0-8.37,0-13.95c3.54,2.04,5.31,3.06,8.84,5.1
				C29.49,179.4,29.49,182.25,29.49,187.96z"/>
			<path class="st8" d="M29.49,173.68c-3.54-2.04-5.31-3.06-8.84-5.1c0-5.58,0-8.37,0-13.95c3.54,1.91,5.31,2.87,8.84,4.78
				C29.49,165.12,29.49,167.97,29.49,173.68z"/>
			<path class="st8" d="M20.65,182.53c-3.54-2.17-5.31-3.26-8.84-5.43c0-5.45,0-8.17,0-13.63c3.54,2.04,5.31,3.06,8.84,5.1
				C20.65,174.16,20.65,176.95,20.65,182.53z"/>
			<path class="st7" d="M38.34,178.79c-3.54-2.04-5.31-3.06-8.84-5.1c0-5.71,0-8.57,0-14.28c3.54,1.91,5.31,2.87,8.84,4.78
				C38.34,170.03,38.34,172.95,38.34,178.79z"/>
			<path class="st7" d="M47.18,198.82c-3.54-2.17-5.31-3.26-8.84-5.43c0-5.84,0-8.76,0-14.6c3.54,2.04,5.31,3.06,8.84,5.11
				C47.18,189.87,47.18,192.85,47.18,198.82z"/>
			<path class="st8" d="M47.18,183.89c-3.54-2.04-5.31-3.06-8.84-5.11c0-5.84,0-8.76,0-14.6c3.54,1.91,5.31,2.87,8.84,4.78
				C47.18,174.94,47.18,177.92,47.18,183.89z"/>
			<path class="st8" d="M38.34,193.39c-3.54-2.17-5.31-3.26-8.84-5.43c0-5.71,0-8.57,0-14.28c3.54,2.04,5.31,3.06,8.84,5.1
				C38.34,184.63,38.34,187.55,38.34,193.39z"/>
			<path class="st7" d="M56.02,158.49c-3.54-1.78-5.31-2.67-8.84-4.45c0-5.97,0-8.96,0-14.93c3.54,1.65,5.31,2.48,8.84,4.13
				C56.02,149.34,56.02,152.39,56.02,158.49z"/>
			<path class="st7" d="M64.87,178.52c-3.54-1.91-5.31-2.87-8.84-4.78c0-6.1,0-9.15,0-15.26c3.54,1.78,5.31,2.67,8.84,4.45
				C64.87,169.18,64.87,172.29,64.87,178.52z"/>
			<path class="st8" d="M64.87,162.94c-3.54-1.78-5.31-2.67-8.84-4.45c0-6.1,0-9.15,0-15.26c3.54,1.65,5.31,2.48,8.84,4.13
				C64.87,153.59,64.87,156.71,64.87,162.94z"/>
			<path class="st8" d="M56.02,173.74c-3.54-1.91-5.31-2.87-8.84-4.78c0-5.97,0-8.96,0-14.93c3.54,1.78,5.31,2.67,8.84,4.45
				C56.02,164.59,56.02,167.64,56.02,173.74z"/>
			<path class="st7" d="M73.71,167.4c-3.54-1.78-5.31-2.67-8.84-4.45c0-6.23,0-9.35,0-15.58c3.54,1.65,5.31,2.48,8.84,4.13
				C73.71,157.85,73.71,161.03,73.71,167.4z"/>
			<path class="st7" d="M82.55,188.08c-3.54-1.91-5.31-2.87-8.84-4.78c0-6.36,0-9.54,0-15.91c3.54,1.78,5.31,2.67,8.84,4.45
				C82.55,178.34,82.55,181.59,82.55,188.08z"/>
			<path class="st8" d="M82.55,171.85c-3.54-1.78-5.31-2.67-8.84-4.45c0-6.36,0-9.54,0-15.91c3.54,1.65,5.31,2.48,8.84,4.13
				C82.55,162.11,82.55,165.36,82.55,171.85z"/>
			<path class="st8" d="M73.71,183.3c-3.54-1.91-5.31-2.87-8.84-4.78c0-6.23,0-9.35,0-15.58c3.54,1.78,5.31,2.67,8.84,4.45
				C73.71,173.76,73.71,176.94,73.71,183.3z"/>
			<path class="st7" d="M56.02,189c-3.54-2.04-5.31-3.06-8.84-5.11c0-5.97,0-8.96,0-14.93c3.54,1.91,5.31,2.87,8.84,4.78
				C56.02,179.85,56.02,182.9,56.02,189z"/>
			<path class="st7" d="M64.87,209.68c-3.54-2.17-5.31-3.26-8.84-5.43c0-6.1,0-9.15,0-15.25c3.54,2.04,5.31,3.06,8.84,5.11
				C64.87,200.34,64.87,203.45,64.87,209.68z"/>
			<path class="st8" d="M64.87,194.1c-3.54-2.04-5.31-3.06-8.84-5.11c0-6.1,0-9.15,0-15.26c3.54,1.91,5.31,2.87,8.84,4.78
				C64.87,184.76,64.87,187.87,64.87,194.1z"/>
			<path class="st8" d="M56.02,204.25c-3.54-2.17-5.31-3.26-8.84-5.43c0-5.97,0-8.96,0-14.93c3.54,2.04,5.31,3.06,8.84,5.11
				C56.02,195.1,56.02,198.15,56.02,204.25z"/>
			<path class="st7" d="M73.71,199.21c-3.54-2.04-5.31-3.06-8.84-5.1c0-6.23,0-9.35,0-15.58c3.54,1.91,5.31,2.87,8.84,4.78
				C73.71,189.67,73.71,192.85,73.71,199.21z"/>
			<path class="st7" d="M82.55,220.55c-3.54-2.17-5.31-3.26-8.84-5.43c0-6.36,0-9.54,0-15.91c3.54,2.04,5.31,3.06,8.84,5.1
				C82.55,210.81,82.55,214.05,82.55,220.55z"/>
			<path class="st8" d="M82.55,204.31c-3.54-2.04-5.31-3.06-8.84-5.1c0-6.36,0-9.54,0-15.91c3.54,1.91,5.31,2.87,8.84,4.78
				C82.55,194.57,82.55,197.82,82.55,204.31z"/>
			<path class="st8" d="M73.71,215.12c-3.54-2.17-5.31-3.26-8.84-5.43c0-6.23,0-9.35,0-15.58c3.54,2.04,5.31,3.06,8.84,5.1
				C73.71,205.57,73.71,208.75,73.71,215.12z"/>
		</g>
	</g>
	<polygon id="Cube_Left" class="st5" points="88.47,147.6 160.98,179.7 160.98,69.44 88.47,52.75 	"/>
	<polygon id="Cube_Right" class="st5" points="160.98,179.7 222.6,147.6 222.6,52.75 160.98,69.44 	"/>
	<polygon id="Cube_Top" class="st5" points="88.47,52.75 160.98,69.44 222.73,52.72 151.55,40.13 	"/>
	<g class="st3">
		<g>
			<line class="st9" x1="68.75" y1="107.42" x2="124.85" y2="90.71"/>
			<g>
				<polygon class="st8" points="124.88,97.2 133.45,88.15 121.33,85.26 				"/>
			</g>
		</g>
	</g>
	<g class="st3">
		<g>
			<line class="st9" x1="68.75" y1="158.16" x2="125.1" y2="136.01"/>
			<g>
				<polygon class="st8" points="125.68,142.48 133.45,132.73 121.12,130.88 				"/>
			</g>
		</g>
	</g>
	<polygon id="Decal_Border" class="st6" points="28.37,168.03 102.81,210.03 102.81,85.37 28.37,63.5 	"/>
</g>
</svg>
